# xmcd
#
# Track frame offsets:
#	150
#	23414
#	40238
#	64662
#	80775
#	97031
#	117035
#	132770
#	147719
#	161493
#	178621
#	196468
#	213613
#	231950
#	248284
#	267555
#	286348
#	308660
#	340762
#
# Disc length: 4784 seconds
#
# Revision: 1
# Processed by: cddbd v1.4PL0 Copyright (c) Steve Scherf et al.
# Submitted via: audiograbber 1.81.02
#
DISCID=1212ae13
DTITLE=Faith Hill - You're still the One (compilation)
DYEAR=1900
DGENRE=Country
TTITLE0=Faith Hill -  Love Will Always Win ( Love Will Always Win )
TTITLE1=Faith Hill - There You'll Be ( Pearl Harbor soundtrack )
TTITLE2=Faith Hill -  When You Cry ( Touched By An Angel  soundtrack )
TTITLE3=Shania Twain and Faith Hill - You're Still the One ( feat Shania Twain )
TTITLE4=Faith Hill - You Give Me Love ( Faith ) 
TTITLE5=Faith Hill - Let Me Let Go ( Faith ) 
TTITLE6=Faith Hill - Better Days ( Faith )
TTITLE7=Faith Hill - It Matters To Me ( It Matters To Me )
TTITLE8=Faith Hill - Just About Now ( Take Me As I Am )
TTITLE9=Faith Hill and Larry Stewart - I've Got This Friend  ( faet Larry Stewart
TTITLE9=Take Me As I Am )
TTITLE10=Faith Hill - Love is a sweet thing ( Breathe ) 
TTITLE11=Faith Hill - It will be me ( Breathe )
TTITLE12=Faith Hill - If I'm Not In Love ( Breathe )
TTITLE13=Faith Hill - If My Heart Had Wings ( Breathe )
TTITLE14=Faith Hill - That's How Love Moves ( Breathe )
TTITLE15=Faith Hill - Baby You Belong ( Cry )
TTITLE16=Faith Hill - If This Is The End ( Cry )
TTITLE17=Faith Hill - Back To You ( Cry )
TTITLE18=Faith Hill - Mutimedia contents
EXTD=This is my personal compilation , the best songs of this beautifull and ma
EXTD=rvelous singer that I'll forever love !\n\nWrite me at xx.man@tiscalinet.i
EXTD=t for more info and suggestions.
EXTT0=
EXTT1=
EXTT2=
EXTT3=
EXTT4=
EXTT5=
EXTT6=
EXTT7=
EXTT8=
EXTT9=
EXTT10=
EXTT11=
EXTT12=
EXTT13=
EXTT14=
EXTT15=
EXTT16=
EXTT17=
EXTT18=
PLAYORDER=
